<svg width="360" height="463" viewBox="0 0 360 463" fill="none" xmlns="http://www.w3.org/2000/svg">
<path d="M217.621 424.222C295.946 402.875 342.472 323.31 321.541 246.507C300.609 169.705 220.145 124.749 141.82 146.096C63.4951 167.442 16.9685 247.008 37.9001 323.81C58.8318 400.613 139.295 445.569 217.621 424.222Z" fill="#FF2A2A"/>
<path d="M198.691 314.632C121.58 368.61 39.8789 277.878 110.978 200.411C125.115 273.024 247.207 225.472 159.814 154.144C138.476 132.772 145.998 117.311 182.947 107.877C302.47 189.487 389.863 66.108 265.201 10.203C170.435 -2.572 119.974 78.96 74.7358 145.983C67.7358 156.349 65.9956 168.923 59.5756 183.412C46.5756 212.755 36.8848 249.867 39.0678 274.549C50.4938 403.71 111.295 396.291 123.4 404.289C127.228 406.817 125.257 405.627 127.343 405.64C128.099 405.64 133.404 404.646 132.47 406.311C131.663 407.748 133.784 405.973 134.357 406C134.713 405.828 135.055 405.627 135.378 405.4C199.655 312.866 134.271 407.167 198.691 314.634V314.632Z" fill="#00D490"/>
<path d="M198.437 314.92C198.089 314.504 195.108 316.604 189.042 319.7C180.269 324.273 170.693 327.099 160.843 328.019C147.808 329.134 134.722 326.576 123.067 320.633C112.692 315.281 103.865 307.352 97.4344 297.608C91.1083 287.951 87.3788 276.827 86.6063 265.308C85.8795 253.898 88.1107 242.494 93.0848 232.199C96.1319 221.638 101.75 211.996 109.434 204.136C107.941 210.533 108.247 217.218 110.317 223.452C114.212 230.209 119.732 235.887 126.377 239.97C133.094 244.003 140.711 246.298 148.538 246.646C156.399 247.047 164.236 245.479 171.338 242.083C178.432 238.602 184.546 233.408 189.127 226.969C193.768 220.533 196.728 213.04 197.74 205.169C198.677 197.263 197.628 189.247 194.686 181.848C191.782 174.406 187.066 167.807 180.967 162.648C178.59 160.7 176.089 158.909 173.479 157.286C171.079 155.751 168.8 154.386 166.772 153.027C164.908 151.818 163.15 150.451 161.518 148.942C160.22 147.751 159.121 146.359 158.263 144.82C157.429 143.2 156.951 141.419 156.862 139.599C156.754 137.661 157.026 135.721 157.662 133.887C158.854 130.187 161.862 126.737 165.496 124.317C169.479 121.859 174.014 120.436 178.687 120.18C183.822 119.906 188.965 120.512 193.895 121.972C199.27 123.561 204.488 125.636 209.486 128.172C214.732 130.735 220.086 133.706 225.775 136.654C246.819 148.236 271 153.26 292.614 143.429C301.293 139.422 308.962 133.517 315.056 126.151C321.027 118.828 325.397 110.334 327.884 101.217C330.386 92.1721 331.095 82.7248 329.973 73.4072C328.82 64.2069 326.014 55.2904 321.69 47.0881C317.418 38.9402 311.819 31.5604 305.123 25.2512C298.491 19.0395 290.954 13.8714 282.769 9.92335C274.661 5.99869 266.052 3.20798 257.183 1.63013C250.912 0.531855 244.556 -0.0134561 238.189 0.000252126C226.847 0.0412612 215.569 1.7113 204.702 4.95924C188.112 10.0092 172.527 17.9077 158.645 28.3013C152.815 32.6144 147.229 37.2493 141.915 42.1843C134.876 48.7355 128.239 55.705 122.039 63.0552C111.431 75.763 101.577 89.0814 92.5272 102.942C80.3516 120.938 69.3184 139.68 59.493 159.059C49.551 178.65 41.7933 199.273 36.3592 220.559C30.8746 242.295 28.8498 264.76 30.3592 287.126C31.1502 298.31 33.0028 309.393 35.8915 320.226C38.8014 331.124 42.8925 341.672 48.0917 351.682C53.7753 362.524 60.8068 372.604 69.0194 381.682C77.1894 390.725 86.4098 398.759 96.4852 405.615C106.54 412.472 117.378 418.104 128.768 422.391C129.343 418.522 134.679 406.454 135.127 405.67C125.147 401.758 115.667 396.676 106.885 390.531C98.0989 384.398 90.0723 377.244 82.9735 369.218C75.9119 361.246 69.881 352.418 65.0233 342.94C60.5539 334.124 57.0545 324.849 54.5878 315.277C52.1006 305.614 50.5333 295.736 49.9061 285.777C48.6998 265.475 50.6793 245.108 55.7723 225.417C60.6783 205.941 68.2722 186.855 77.6542 168.15C87.1721 149.566 97.8315 131.59 109.571 114.323C118.206 101.145 127.597 88.477 137.695 76.3833C143.388 69.667 149.465 63.2856 155.895 57.2712C160.631 52.8542 165.618 48.7141 170.831 44.8713C183.107 35.8713 196.481 28.7503 210.511 24.6323C224.733 20.4613 239.639 19.2012 253.625 21.7092C260.661 22.9372 267.495 25.1242 273.936 28.2092C280.286 31.2369 286.142 35.2086 291.303 39.9893C296.391 44.7408 300.656 50.3036 303.923 56.4512C307.158 62.4966 309.277 69.0754 310.18 75.8723C311.028 82.6091 310.556 89.4466 308.791 96.0032C307.083 102.469 304.043 108.506 299.866 113.728C295.673 118.861 290.387 122.991 284.392 125.818C278.507 128.645 272.035 130.033 265.509 129.869C260.298 129.603 255.154 128.568 250.246 126.796C244.809 124.844 239.512 122.523 234.391 119.849C228.991 117.115 223.463 114.132 217.62 111.342C211.569 108.367 205.258 105.954 198.765 104.134C191.779 102.183 184.509 101.449 177.273 101.964C169.546 102.527 162.085 105.032 155.583 109.246C148.683 113.751 143.479 120.424 140.794 128.214C139.452 132.268 138.92 136.546 139.229 140.804C139.531 145.161 140.77 149.402 142.863 153.235C144.649 156.397 146.932 159.251 149.623 161.688C152.003 163.844 154.565 165.791 157.279 167.507C159.794 169.127 162.18 170.515 164.344 171.847C166.344 173.042 168.266 174.364 170.098 175.803C174.089 179.09 177.201 183.317 179.155 188.103C181.163 192.897 181.951 198.113 181.45 203.286C180.862 208.479 178.994 213.444 176.014 217.736C173.054 222.081 169.063 225.625 164.398 228.049C159.667 230.414 154.423 231.567 149.137 231.404C143.813 231.288 138.602 229.854 133.969 227.231C129.346 224.517 125.469 220.698 122.686 216.116C118.138 210.858 114.638 204.779 112.374 198.205C99.7821 204.921 89.1231 214.754 81.4159 226.764C75.8537 239.151 73.6203 252.775 74.9354 266.29C76.2739 279.693 81.0917 292.514 88.912 303.481C96.6839 314.324 107.164 322.94 119.306 328.467C132.55 334.462 147.258 336.457 161.621 334.205C172.093 332.56 182.048 328.531 190.717 322.429L198.437 314.92Z" fill="black"/>
<path d="M224.812 150.103C224.66 150.573 227.388 151.871 232.525 154.426C240.062 158.102 247.317 162.33 254.23 167.075C263.426 173.436 271.875 180.814 279.416 189.07C286.908 197.263 293.422 206.299 298.828 215.996C304.195 225.611 308.347 235.856 311.186 246.496C313.969 257.094 315.419 267.998 315.502 278.955C315.593 289.901 314.39 300.82 311.92 311.484C309.469 322.113 305.769 332.415 300.898 342.176C296.067 351.873 290.038 360.926 282.953 369.122C275.857 377.268 267.767 384.492 258.871 390.622C249.968 396.766 240.368 401.832 230.271 405.716C220.203 409.602 209.709 412.279 199.01 413.693C188.38 415.105 177.616 415.175 166.969 413.901C156.054 412.468 145.356 409.707 135.111 405.679C128.043 417.857 129.006 420.106 128.754 422.401C140.428 426.815 152.603 429.771 165.002 431.201C177.104 432.471 189.317 432.205 201.352 430.409C213.33 428.629 225.053 425.424 236.271 420.862C247.472 416.32 258.088 410.455 267.896 403.393C277.711 396.335 286.594 388.063 294.33 378.773C302.014 369.481 308.489 359.252 313.6 348.331C318.691 337.47 322.462 326.038 324.832 314.279C327.207 302.56 328.165 290.598 327.689 278.651C327.224 266.724 325.243 254.905 321.791 243.479C318.313 232.115 313.397 221.242 307.16 211.126C300.971 201.071 293.581 191.809 285.15 183.543C276.787 175.315 267.424 168.168 257.281 162.27C249.808 157.883 241.865 154.348 233.604 151.731C227.997 150.012 224.965 149.643 224.812 150.114V150.103Z" fill="url(#paint0_radial)" stroke="#FF2A2A" stroke-width="0.265"/>
<defs>
<radialGradient id="paint0_radial" cx="0" cy="0" r="1" gradientUnits="userSpaceOnUse" gradientTransform="translate(3502.76 -10104.3) rotate(-24.9162) scale(215.43 118.465)">
<stop stop-color="#000015"/>
<stop offset="1" stop-color="#EDFFDF" stop-opacity="0"/>
</radialGradient>
</defs>
</svg>
